<?xml version="1.0" encoding="utf-8"?>
<!-- Generator: Adobe Illustrator 22.1.0, SVG Export Plug-In . SVG Version: 6.00 Build 0)  -->
<svg version="1.1" id="Layer_1" xmlns="http://www.w3.org/2000/svg" xmlns:xlink="http://www.w3.org/1999/xlink" x="0px" y="0px"
	 viewBox="0 0 612 792" style="enable-background:new 0 0 612 792;" xml:space="preserve">
<style type="text/css">
	.st0{fill:url(#SVGID_1_);stroke:url(#SVGID_2_);stroke-miterlimit:10;}
	.st1{display:none;}
	.st2{display:inline;}
	.st3{opacity:0.47;}
	.st4{fill:#808080;}
	.st5{opacity:0.94;}
	.st6{fill:#F2F2F2;}
	.st7{fill:#FFFFFF;}
	.st8{fill:#FAFAFA;}
</style>
<g id="Layer_6">
	
		<linearGradient id="SVGID_1_" gradientUnits="userSpaceOnUse" x1="308.6" y1="226.6667" x2="308.6" y2="798.8895" gradientTransform="matrix(1 0 0 -1 0 792)">
		<stop  offset="0" style="stop-color:#4EA9CE"/>
		<stop  offset="8.675551e-02" style="stop-color:#39A0C8"/>
		<stop  offset="0.1926" style="stop-color:#2898C4"/>
		<stop  offset="0.3015" style="stop-color:#1C93C1"/>
		<stop  offset="0.4177" style="stop-color:#1A92C0"/>
		<stop  offset="0.6685" style="stop-color:#1E80B8"/>
		<stop  offset="0.8022" style="stop-color:#1C79B5"/>
		<stop  offset="1" style="stop-color:#1E67AC"/>
	</linearGradient>
	
		<linearGradient id="SVGID_2_" gradientUnits="userSpaceOnUse" x1="-8.1" y1="512.7781" x2="625.3" y2="512.7781" gradientTransform="matrix(1 0 0 -1 0 792)">
		<stop  offset="0" style="stop-color:#FFFF25"/>
		<stop  offset="5.948725e-02" style="stop-color:#FEE916"/>
		<stop  offset="0.1303" style="stop-color:#FED50E"/>
		<stop  offset="0.2032" style="stop-color:#FECA06"/>
		<stop  offset="0.2809" style="stop-color:#FEC601"/>
		<stop  offset="0.6685" style="stop-color:#FB7B1E"/>
		<stop  offset="0.8876" style="stop-color:#F9441B"/>
		<stop  offset="1" style="stop-color:#F71818"/>
	</linearGradient>
	<rect x="-7.6" y="-6.9" class="st0" width="632.4" height="572.2"/>
</g>
<g id="Layer_1_1_" class="st1">
	
		<image style="display:inline;overflow:visible;enable-background:new    ;" width="659" height="390" xlink:href="324D3702.png"  transform="matrix(0.8792 0 0 0.8269 22.2535 -32.6616)">
	</image>
	<g id="Layer_7" class="st2">
		
			<image style="overflow:visible;enable-background:new    ;" width="805" height="963" xlink:href="324D3705.jpeg"  transform="matrix(0.2075 0 0 0.2075 173.2266 289.3691)">
		</image>
		<g>
			<g>
				<path d="M503,266c0.4-29.8,3.2-59.4,8.4-88.7c0.6-3.1-4.3-4.5-4.8-1.3c-5.3,29.7-8.2,59.8-8.6,90C498,269.2,503,269.2,503,266
					L503,266z"/>
			</g>
		</g>
		<g>
			<g>
				<path d="M509.3,178.9c6.8,0,13.6-0.1,20.3-0.5c3.2-0.2,3.2-5.2,0-5c-6.8,0.3-13.5,0.5-20.3,0.5
					C506.1,173.8,506.1,178.8,509.3,178.9L509.3,178.9z"/>
			</g>
		</g>
		<g>
			<g>
				<path d="M506.4,172.7c-4.6-0.2-9-1.4-12.9-3.9c-6-3.9,4.4-3.9,7.2-3.9c9,0,16,4.2,24.4,6.6c3.1,0.9,4.4-3.9,1.3-4.8
					c-7.2-2.1-13.6-5.7-21.2-6.5c-4.7-0.5-13.9-1.2-17.8,2.3c-3.3,2.9-1.2,7.1,1.7,9.4c4.9,3.9,11.1,5.6,17.3,5.9
					C509.6,177.9,509.6,172.9,506.4,172.7L506.4,172.7z"/>
			</g>
		</g>
		<g>
			<g>
				<path d="M514.6,161.4c2.9-14.6,7.2-28.9,12.8-42.7c1.2-3-3.6-4.3-4.8-1.3c-5.7,13.8-10,28-12.8,42.7
					C509.2,163.2,514,164.5,514.6,161.4L514.6,161.4z"/>
			</g>
		</g>
		<g>
			<g>
				<path d="M525.3,119c8.1,0.3,16.2,0.6,24.3,0.9c3.2,0.1,3.2-4.9,0-5c-8.1-0.3-16.2-0.6-24.3-0.9
					C522.1,113.9,522.1,118.9,525.3,119L525.3,119z"/>
			</g>
		</g>
		<g>
			<g>
				<path d="M551.5,120.7c2.4,10,2.2,20.3,2.1,30.6c-0.1,10.6-0.1,21.2-0.2,31.9c-0.1,20.6-0.2,41.2-0.4,61.7
					c-0.3,41.8-0.5,83.6-0.8,125.5c0,3.2,5,3.2,5,0c0.3-42.5,0.5-85,0.8-127.5c0.1-21.2,0.3-42.5,0.4-63.7
					c0.1-10.6,0.1-21.2,0.2-31.9c0-9.4-0.1-18.8-2.3-27.9C555.6,116.2,550.7,117.6,551.5,120.7L551.5,120.7z"/>
			</g>
		</g>
		<g>
			<g>
				<path d="M551.7,120.2c0.6,0,1.1,0,1.7,0c1.3,0,2.6-1.1,2.5-2.5s-1.1-2.5-2.5-2.5c-0.6,0-1.1,0-1.7,0c-1.3,0-2.6,1.1-2.5,2.5
					C549.2,119,550.3,120.2,551.7,120.2L551.7,120.2z"/>
			</g>
		</g>
		<g>
			<g>
				<path d="M523.7,128.5c10.2,0.2,20.4-0.1,30.7-0.8c3.2-0.2,3.2-5.2,0-5c-10.2,0.8-20.4,1-30.7,0.8
					C520.4,123.4,520.4,128.4,523.7,128.5L523.7,128.5z"/>
			</g>
		</g>
		<g>
			<g>
				<path d="M507.9,198.4c7.4-1.9,14.9-3.8,22.6-4.1c7.8-0.3,14.8,1.5,22,4.1c3,1.1,4.3-3.7,1.3-4.8c-7.6-2.8-15.2-4.7-23.4-4.3
					c-8.1,0.4-16.1,2.3-23.9,4.3C503.5,194.3,504.8,199.2,507.9,198.4L507.9,198.4z"/>
			</g>
		</g>
		<g>
			<g>
				<path d="M504.3,220.2c15.8-5.1,33.9-9.6,48.7,0.6c2.7,1.8,5.2-2.5,2.5-4.3c-15.9-11-35.5-6.6-52.5-1.1
					C500,216.4,501.3,221.2,504.3,220.2L504.3,220.2z"/>
			</g>
		</g>
		<g>
			<g>
				<path d="M517.3,195.7c0.7,6.5,2,12.8,4.1,18.9c1,3,5.9,1.7,4.8-1.3c-1.9-5.7-3.3-11.6-3.9-17.6C522,192.5,517,192.5,517.3,195.7
					L517.3,195.7z"/>
			</g>
		</g>
		<g>
			<g>
				<path d="M542.7,193.5c-3.3,0.1-3.2,3.4-3.6,5.9c-0.6,4-1.1,7.9-1.7,11.9c-0.4,3.1,4.4,4.5,4.8,1.3c0.4-2.6,0.7-5.1,1.1-7.7
					c0.3-2.1,0.2-5.8,1.1-7.6c-0.7,0.4-1.4,0.8-2.2,1.2c0.1,0,0.3,0,0.4,0C545.9,198.4,545.9,193.4,542.7,193.5L542.7,193.5z"/>
			</g>
		</g>
		<g>
			<g>
				<path d="M502.3,241.2c7.9-4.1,16.6-5.1,25.4-5.6c7.8-0.4,16.8-1.5,23.6,3.3c2.6,1.9,5.1-2.5,2.5-4.3c-7.5-5.4-17.3-4.4-26.1-4
					c-9.7,0.5-19.2,1.8-27.9,6.2C496.9,238.4,499.4,242.7,502.3,241.2L502.3,241.2z"/>
			</g>
		</g>
		<g>
			<g>
				<path d="M512.5,217c0,5.4,0,10.9,0,16.3c0,3.2,5,3.2,5,0c0-5.4,0-10.9,0-16.3C517.5,213.8,512.5,213.8,512.5,217L512.5,217z"/>
			</g>
		</g>
		<g>
			<g>
				<path d="M529.7,215c0.4,5.2,0.9,10.4,1.6,15.6c0.4,3.1,5.4,3.2,5,0c-0.7-5.2-1.2-10.4-1.6-15.6
					C534.5,211.8,529.5,211.8,529.7,215L529.7,215z"/>
			</g>
		</g>
		<g>
			<g>
				<path d="M545.3,216c-1.1,6-1.7,11.9-1.9,18c-0.1,3.2,4.9,3.2,5,0c0.2-5.6,0.8-11.1,1.7-16.7C550.7,214.2,545.9,212.8,545.3,216
					L545.3,216z"/>
			</g>
		</g>
		<g>
			<g>
				<path d="M501.3,262.8c16.2-4.6,33-5.9,49.7-3.7c3.2,0.4,3.2-4.6,0-5c-17.2-2.2-34.4-0.8-51,3.9
					C496.9,258.9,498.2,263.7,501.3,262.8L501.3,262.8z"/>
			</g>
		</g>
		<g>
			<g>
				<path d="M519.5,234.7c0,6.7,0,13.3,0,20c0,3.2,5,3.2,5,0c0-6.7,0-13.3,0-20C524.5,231.4,519.5,231.4,519.5,234.7L519.5,234.7z"
					/>
			</g>
		</g>
		<g>
			<g>
				<path d="M535.5,236c0,5.2,0,10.4,0,15.7c0,3.2,5,3.2,5,0c0-5.2,0-10.4,0-15.7C540.5,232.8,535.5,232.8,535.5,236L535.5,236z"/>
			</g>
		</g>
		<g>
			<g>
				<path d="M473.7,258.3c0.2-14.2,0.2-28.4,0.1-42.7c0-3.2-5-3.2-5,0c0.1,14.2,0.1,28.4-0.1,42.7
					C468.7,261.6,473.7,261.6,473.7,258.3L473.7,258.3z"/>
			</g>
		</g>
		<g>
			<g>
				<path d="M465.3,216.7c5-2.1,11.3-1.3,16.7-1.3c5.9,0,10.5,1.5,15.7,4.2c2.8,1.5,5.4-2.8,2.5-4.3c-5.4-2.9-10.4-4.8-16.5-4.9
					c-6.3-0.2-13.8-1-19.7,1.4C461,213.1,462.3,218,465.3,216.7L465.3,216.7z"/>
			</g>
		</g>
		<g>
			<g>
				<path d="M472.5,214.5c5.6-8.7,10.2-17.9,13.8-27.6c-1.5,0.2-3,0.4-4.6,0.6c4.8,9.6,9.8,19,15.2,28.3c1.6,2.8,5.9,0.3,4.3-2.5
					c-5.4-9.3-10.4-18.7-15.2-28.3c-1-2.1-3.9-1.2-4.6,0.6c-3.5,9.3-7.9,18.1-13.3,26.4C466.4,214.6,470.8,217.2,472.5,214.5
					L472.5,214.5z"/>
			</g>
		</g>
		<g>
			<g>
				<path d="M525.1,280.3c3.8-1.9,10.5-0.9,14.6-0.6c3.8,0.3,6.8,2.5,10.6,2.7c3.2,0.2,3.2-4.8,0-5c-2.3-0.1-4.4-1.8-6.6-2.3
					c-2.4-0.6-5-0.5-7.5-0.6c-4.6-0.1-9.5-0.7-13.7,1.4C519.7,277.4,522.3,281.7,525.1,280.3L525.1,280.3z"/>
			</g>
		</g>
		<g>
			<g>
				<path d="M510.4,259c0.7,4.3,1,8.7,1.1,13c0.1,3.2,5.1,3.2,5,0c-0.1-4.8-0.6-9.6-1.3-14.3C514.7,254.5,509.9,255.8,510.4,259
					L510.4,259z"/>
			</g>
		</g>
		<g>
			<g>
				<path d="M525.6,257.3c-0.4,6.5,0,12.9,1,19.3c0.5,3.2,5.3,1.8,4.8-1.3c-1-6-1.2-12-0.9-18C530.8,254.1,525.8,254.1,525.6,257.3
					L525.6,257.3z"/>
			</g>
		</g>
		<g>
			<g>
				<path d="M497.8,177.3c0.3,14.8-0.6,29-3.1,43.5c-2.3,13.3-4.6,26.6-3.8,40.1c0.2,3.2,5.2,3.2,5,0c-0.9-14.4,2-28.4,4.3-42.6
					c2.2-13.7,2.8-27.2,2.6-41.1C502.7,174.1,497.7,174.1,497.8,177.3L497.8,177.3z"/>
			</g>
		</g>
		<g>
			<g>
				<path d="M507.5,163.3c0.9-6.3,3-12.4,4-18.7c1-6,1.6-12.3,5.8-17c2.1-2.4-1.4-6-3.5-3.5c-4.1,4.7-5.5,10.2-6.5,16.2
					c-1.2,7.3-3.4,14.4-4.5,21.7C502.2,165.1,507,166.5,507.5,163.3L507.5,163.3z"/>
			</g>
		</g>
		<g>
			<g>
				<path d="M535.7,303.5c5.4-0.8,10.9-1.7,16.3-2.5c3.2-0.5,1.8-5.3-1.3-4.8c-5.4,0.8-10.9,1.7-16.3,2.5
					C531.2,299.1,532.5,304,535.7,303.5L535.7,303.5z"/>
			</g>
		</g>
		<g>
			<g>
				<path d="M537.4,279c0.3,6.1,0.6,12.2,0.8,18.4c0.1,3.2,5.1,3.2,5,0c-0.3-6.1-0.6-12.2-0.8-18.4
					C542.2,275.8,537.2,275.8,537.4,279L537.4,279z"/>
			</g>
		</g>
		<g>
			<g>
				<path d="M540.2,257.7c0,5.9,0,11.8,0,17.7c0,3.2,5,3.2,5,0c0-5.9,0-11.8,0-17.7C545.2,254.4,540.2,254.4,540.2,257.7
					L540.2,257.7z"/>
			</g>
		</g>
		<g>
			<g>
				<path d="M489.9,307.7c-0.7,3.8-1.1,7.5-1.1,11.3c0,3.2,5,3.2,5,0c0-3.4,0.3-6.7,0.9-10C495.3,305.8,490.5,304.5,489.9,307.7
					L489.9,307.7z"/>
			</g>
		</g>
		<g>
			<g>
				<path d="M491.7,308.4c3.6-0.3,7.1-0.6,10.7-0.9c1.1-0.1,3.9-0.9,4.8,0.1c0.7,0.8-0.7,4.7-1,5.7c-0.9,3.1,4,4.4,4.8,1.3
					c1.1-3.9,2.8-10.2-2.3-12c-2.2-0.8-4.8-0.3-7-0.1c-3.3,0.3-6.7,0.6-10,0.9C488.5,303.7,488.5,308.7,491.7,308.4L491.7,308.4z"/>
			</g>
		</g>
		<g>
			<g>
				<path d="M490.7,321.8c6.2,0.4,12.5,0.2,18.7-0.5c3.2-0.4,3.2-5.4,0-5c-6.2,0.7-12.4,0.9-18.7,0.5
					C487.5,316.6,487.5,321.6,490.7,321.8L490.7,321.8z"/>
			</g>
		</g>
		<g>
			<g>
				<path d="M490.7,150c9.9-2.1,19.9-2.4,30-0.9c3.1,0.5,4.5-4.4,1.3-4.8c-10.9-1.6-21.8-1.3-32.6,0.9
					C486.2,145.8,487.6,150.6,490.7,150L490.7,150z"/>
			</g>
		</g>
		<g>
			<g>
				<path d="M491.9,144.7c-0.4-0.9-0.9-1.8-1.3-2.7c-0.6-1.2-2.3-1.6-3.4-0.9c-1.2,0.8-1.5,2.2-0.9,3.4c0.4,0.9,0.9,1.8,1.3,2.7
					c0.6,1.2,2.3,1.6,3.4,0.9C492.2,147.4,492.5,146,491.9,144.7L491.9,144.7z"/>
			</g>
		</g>
		<g>
			<g>
				<path d="M491.7,143.6c9.8,1.2,19.4-0.1,28.6-3.6c3-1.1,1.7-6-1.3-4.8c-8.8,3.4-17.9,4.6-27.3,3.4
					C488.5,138.3,488.5,143.3,491.7,143.6L491.7,143.6z"/>
			</g>
		</g>
		<g>
			<g>
				<path d="M492,148.7c11.9,1.2,23.8,1.1,35.7-0.4c3.2-0.4,3.2-5.4,0-5c-11.9,1.4-23.8,1.6-35.7,0.4
					C488.8,143.4,488.8,148.4,492,148.7L492,148.7z"/>
			</g>
		</g>
		<g>
			<g>
				<path d="M506.6,155c7.2-1.8,14.3-3.9,21.3-6.3c3-1,1.7-5.9-1.3-4.8c-7,2.4-14.1,4.5-21.3,6.3C502.2,151,503.5,155.8,506.6,155
					L506.6,155z"/>
			</g>
		</g>
		<g>
			<g>
				<path d="M519.3,153.2c4.3-0.6,8.3-1.9,12.2-3.8c2.9-1.4,0.4-5.7-2.5-4.3c-3.5,1.7-7.2,2.7-11,3.3
					C514.8,148.8,516.2,153.7,519.3,153.2L519.3,153.2z"/>
			</g>
		</g>
		<g>
			<g>
				<path d="M491.5,163.7c0-1.8,0-3.6,0-5.3c0-3.2-5-3.2-5,0c0,1.8,0,3.6,0,5.3C486.5,166.9,491.5,166.9,491.5,163.7L491.5,163.7z"
					/>
			</g>
		</g>
		<g>
			<g>
				<path d="M500.9,159.2c-0.1,0-0.2-0.1-0.2-0.1C501,159.4,501,159.4,500.9,159.2c-0.2-0.2-0.2-0.2,0.1,0.1
					C500.9,159.2,500.9,159.1,500.9,159.2C500.9,159.5,501,159.6,500.9,159.2c0,0-0.1-0.1-0.1-0.2
					C500.9,159.5,500.9,159.6,500.9,159.2c0-0.1,0-0.1,0-0.2c0.1-1.3-1.2-2.6-2.5-2.5c-1.5,0.1-2.4,1.1-2.5,2.5
					c-0.2,1.8,0.9,3.7,2.5,4.6c1.1,0.6,2.8,0.3,3.4-0.9C502.4,161.5,502.1,159.9,500.9,159.2L500.9,159.2z"/>
			</g>
		</g>
		<g>
			<g>
				<path d="M505.2,161.9c0.5-1,0.9-2,1.4-3c0.5-1.2,0.4-2.7-0.9-3.4c-1.1-0.6-2.8-0.4-3.4,0.9c-0.5,1-0.9,2-1.4,3
					c-0.5,1.2-0.4,2.7,0.9,3.4C502.9,163.4,504.6,163.2,505.2,161.9L505.2,161.9z"/>
			</g>
		</g>
		<g>
			<g>
				<path d="M512.8,163.2c1.7-1.8,2.9-3.9,3.8-6.2c0.5-1.3-0.5-2.7-1.7-3.1c-1.4-0.4-2.6,0.5-3.1,1.7c-0.5,1.5-1.4,2.8-2.5,4
					C507.1,162,510.6,165.5,512.8,163.2L512.8,163.2z"/>
			</g>
		</g>
		<g>
			<g>
				<path d="M520.3,163.2c0.2-0.1,0.4-0.2,0.7-0.3c1.2-0.6,1.6-2.3,0.9-3.4c-0.8-1.2-2.2-1.5-3.4-0.9c-0.2,0.1-0.4,0.2-0.7,0.3
					c-1.2,0.6-1.6,2.3-0.9,3.4C517.6,163.5,519,163.8,520.3,163.2L520.3,163.2z"/>
			</g>
		</g>
	</g>
</g>
<g id="Layer_9" class="st1">
	<g class="st2">
		<g>
			<path d="M558.2,376.9c-13.3,2.2-25.3-5.8-36.4-12c-10.3-5.8-21.1-10.7-32.2-14.8c-22.8-8.3-47.2-13.1-71.5-13.4
				c-10.8-0.1-23.5,0.6-32.6,7c-8.1,5.7-8.7,15-6.3,23.9c2.9,10.5,7.7,21,12.7,30.6c4.9,9.4,11,18.3,19,25.4
				c9.8,8.6,21.5,14.4,32.7,20.9c13.2,7.7,25.8,16.2,37.9,25.6c1,0.8,2.6,1.2,3.5,0c23.7-29.7,46.7-62.4,79.1-83.3
				c2.7-1.7,0.2-6.1-2.5-4.3c-32.8,21.2-56,54-80.1,84.1c1.2,0,2.4,0,3.5,0c-9-7-18.2-13.6-27.8-19.6c-9.8-6.2-20.1-11.5-30-17.6
				c-9.8-6.1-18.3-13.4-24.7-23c-6-9-10.4-18.9-14.4-28.9c-3.8-9.5-10-23.3,1.3-30.3c10.3-6.4,24.4-5.8,36-5.2
				c23,1.2,45.7,6.2,67.2,14.5c12,4.7,23.2,10.8,34.5,16.9c10.2,5.6,20.8,10.1,32.7,8.2C562.7,381.3,561.3,376.4,558.2,376.9
				L558.2,376.9z"/>
		</g>
	</g>
	<g class="st2">
		<g>
			<path d="M205.5,288.7c-0.4-0.7-1.1-1.1-1.5-1.8c-0.5-0.3-0.5-0.8-0.2-1.5c-0.4-0.9-0.1-1.4,0.7-1.6c0.8-0.5,1.6-0.6,2.5-0.7
				c2.5-0.2,5.1-0.1,7.6,0.2c0.8,0.1,0.8-1.2,0-1.3c-3.1-0.4-8.3-1.2-11.1,0.7c-0.9,0.6-1.6,1.6-1.5,2.7c0.1,1.7,1.8,2.4,2.5,3.7
				C204.9,290,205.9,289.4,205.5,288.7L205.5,288.7z"/>
		</g>
	</g>
	<g class="st2">
		<g>
			<path d="M425.5,339.5c1.9-17,1.5-34.1,0.1-51.1c-0.3-3.2-5.3-3.2-5,0c1.4,17,1.8,34.1-0.1,51.1
				C420.2,342.7,425.2,342.7,425.5,339.5L425.5,339.5z"/>
		</g>
	</g>
	<g class="st2">
		<g>
			<path d="M426.9,287.6c6.6-9.5,11.6-19.9,15.2-30.8c1-3.1-3.8-4.4-4.8-1.3c-3.5,10.6-8.4,20.5-14.7,29.7
				C420.7,287.7,425.1,290.2,426.9,287.6L426.9,287.6z"/>
		</g>
	</g>
	<g class="st2">
		<g>
			<path d="M442.8,256.9c6.2,1.1,12.4,1.5,18.7,1c3.2-0.3,3.2-5.3,0-5c-5.8,0.5-11.6,0.2-17.3-0.8
				C441,251.5,439.7,256.3,442.8,256.9L442.8,256.9z"/>
		</g>
	</g>
	<g class="st2">
		<g>
			<path d="M458.9,256.2c6.3,10.5,14.8,19.2,25.2,25.7c2.7,1.7,5.2-2.6,2.5-4.3c-9.7-6.1-17.5-14.1-23.4-23.9
				C461.5,251,457.2,253.5,458.9,256.2L458.9,256.2z"/>
		</g>
	</g>
	<g class="st2">
		<g>
			<path d="M481.7,284c0.3,10.5,0.7,21,1.4,31.5c0.6,9.2,0.6,19.2,3.5,28.1c1,3,5.8,1.7,4.8-1.3c-2.9-9-2.8-19.3-3.4-28.7
				c-0.6-9.8-1.1-19.7-1.3-29.6C486.7,280.8,481.7,280.8,481.7,284L481.7,284z"/>
		</g>
	</g>
	<g class="st2">
		<g>
			<path d="M463,256.5c20.8,6.6,41.4,13.8,61.8,21.6c3,1.2,4.3-3.7,1.3-4.8c-20.4-7.9-41-15.1-61.8-21.6
				C461.2,250.7,459.9,255.5,463,256.5L463,256.5z"/>
		</g>
	</g>
	<g class="st2">
		<g>
			<path d="M523.5,275.2c-0.7,3.5,1,6.2,2.7,9.1c2.1,3.5,4.4,6.8,7,10c2,2.5,5.5-1,3.5-3.5c-1.8-2.2-3.4-4.5-4.9-6.9
				c-1.1-1.7-3.9-5.2-3.4-7.3C528.9,273.4,524.1,272.1,523.5,275.2L523.5,275.2z"/>
		</g>
	</g>
	<g class="st2">
		<g>
			<path d="M481,282.2c17.4,6.7,35.4,15.3,54.5,14.3c3.2-0.2,3.2-5.2,0-5c-18.6,1-36.2-7.6-53.1-14.1
				C479.4,276.2,478.1,281,481,282.2L481,282.2z"/>
		</g>
	</g>
	<g class="st2">
		<g>
			<path d="M531.3,294c-0.5,25.5-0.6,51-0.2,76.5c0,3.2,5,3.2,5,0c-0.4-25.5-0.3-51,0.2-76.5C536.4,290.8,531.4,290.8,531.3,294
				L531.3,294z"/>
		</g>
	</g>
	<g class="st2">
		<g>
			<path d="M489,343c-0.3,2.4-0.1,4.8,0.4,7.2c0.7,3.1,5.5,1.8,4.8-1.3c-0.4-1.9-0.4-3.9-0.2-5.9c0.2-1.3-1.3-2.5-2.5-2.5
				C490.1,340.5,489.2,341.7,489,343L489,343z"/>
		</g>
	</g>
</g>
<g id="Layer_8" class="st1">
	
		<image style="display:inline;overflow:visible;enable-background:new    ;" width="599" height="479" xlink:href="324D370B.jpeg"  transform="matrix(0.5768 0 0 0.5768 5.0139 17.8439)">
	</image>
</g>
<g id="Layer_5">
	<g class="st3">
		<g>
			
				<image style="overflow:visible;opacity:0.94;enable-background:new    ;" width="625" height="321" xlink:href="324D370E.png"  transform="matrix(0.2469 0 0 0.2363 -41.4324 125.3062)">
			</image>
			<g>
				<g>
					<path class="st4" d="M-22.8,150.9c13.1-2.4,25.6,5.2,35.8,12.2c9.3,6.3,17.8,14.3,20.3,25.3c0.5,2.3,3.6,2.2,4.8,0.6
						c2.2-2.9,6.3-4.6,9.6-6.2c5-2.4,10.5-4.3,16-5.5c5.6-1.2,11.7-1.5,17,0.9c5.3,2.4,8.6,7.2,11.7,11.7c1.9,2.7,6.4,0.2,4.5-2.5
						c-3.3-4.9-6.9-10-12.3-13c-5.6-3.1-12.2-3.4-18.5-2.6c-6.8,0.9-13.4,3.1-19.4,5.9c-4.8,2.2-9.8,4.6-13.1,8.7
						c1.6,0.2,3.1,0.4,4.8,0.6c-2.8-12.3-12.3-21.2-22.7-28.2c-11.6-7.9-25.2-15.4-39.9-12.7C-27.5,146.7-26,151.5-22.8,150.9
						L-22.8,150.9z"/>
				</g>
			</g>
		</g>
		<g>
			
				<image style="overflow:visible;opacity:0.94;enable-background:new    ;" width="1008" height="367" xlink:href="324D3703.png"  transform="matrix(0.2493 0 0 0.2386 77.7458 153.1684)">
			</image>
			<g>
				<g>
					<path class="st4" d="M96.9,192.6c3.2-0.8,6.9-2.9,10.3-2.8c2.5,0.1,5.4,1.2,7.8,2.1c6,2.2,7.8,8.3,9,13.9c0.4,2,3,2.3,4.4,1.1
						c13.4-11.3,38-29,53.7-10.7c1.6,1.9,4.3,0.1,4.5-1.8c0.8-6.8,7.9-10.5,14-12.7c7-2.6,14.9-4.6,22.5-2.9
						c14.4,3.4,22.5,16.9,29.3,28.3c0-0.8,0-1.7,0-2.5c-0.3,0.4-0.5,0.8-0.8,1.2c1.6,0.6,3.1,1.3,4.8,1.9c1.1-6,9.3-7.7,14.6-8.7
						c6.4-1.2,13.7-1.6,19.8,0.9c11.7,4.9,15.2,17.9,17.6,28.8c0.6,3.2,5.7,1.8,5-1.3c-2.9-13.9-8.8-30-25.1-33.5
						c-10.6-2.3-34.5-0.7-36.9,12.5c-0.5,2.8,3.1,4.4,4.8,1.9c0.3-0.4,0.5-0.8,0.8-1.2c0.5-0.7,0.4-1.8,0-2.5
						c-8.4-14.1-19.2-30.5-38-31.4c-13.6-0.7-35.5,6.2-37.4,21.2c1.5-0.6,2.9-1.2,4.5-1.8c-6.9-8-18.2-10.3-28.5-8.5
						c-12.9,2.3-23.2,11.1-32.6,19.1c1.5,0.4,2.9,0.7,4.4,1.1c-1.4-6.5-4.1-13.8-10.8-16.7c-2.8-1.2-6.1-2.3-9.2-2.8
						c-4.9-0.7-9.1,1.6-13.7,2.7C92.2,188.6,93.5,193.4,96.9,192.6L96.9,192.6z"/>
				</g>
			</g>
		</g>
		<g>
			
				<image style="overflow:visible;opacity:0.94;enable-background:new    ;" width="317" height="221" xlink:href="324D3701.png"  transform="matrix(0.2469 0 0 0.2362 325.1494 204.3645)">
			</image>
			<g>
				<g>
					<path class="st4" d="M345.3,235c5-5.7,14.8-6.6,22.2-4.9c7.6,1.8,13.1,7.5,15,14.6c0.8,3.1,5.9,1.8,5-1.3
						c-2.4-8.7-9.4-16-18.7-18.1c-9-2.1-20.9-0.9-27.2,6.2C339.6,234,343.2,237.5,345.3,235L345.3,235z"/>
				</g>
			</g>
		</g>
		<g>
			
				<image style="overflow:visible;opacity:0.94;enable-background:new    ;" width="1033" height="838" xlink:href="324D3706.png"  transform="matrix(0.2484 0 0 0.2377 388.4634 61.652)">
			</image>
			<g>
				<g>
					<path class="st4" d="M408.9,249c3.4-8.2,11.2-14.2,20.2-16.2c4.4-1,8.3,0.1,12.4-0.3c4-0.4,5.6-4.5,8.3-6.9
						c7.6-7.4,18.7-10.6,29.3-8.5c2.6,0.5,5.1,1.4,7.4,2.4c1.7,0.8,3.9,2.9,5.7,3.2c1.9,0.4,4-0.9,5.6-1.5c1-0.4,2.1-1.3,1.9-2.4
						c-2.2-20.9,2.8-43.2,16.6-60c6.5-7.8,14.8-14.2,24.7-17.7c4.8-1.7,9.8-2.7,14.9-2.9c2.6-0.1,12.8-0.3,13.9,1.7
						c1.1,1.9,4.2,1.4,4.8-0.6c7.1-25,27.7-45.2,53.5-52.7c3.2-0.9,1.9-5.8-1.4-4.8c-27.6,8-49.5,29.6-57.2,56.2
						c1.6-0.2,3.1-0.4,4.8-0.6c-1.9-3.3-7.3-3.5-10.9-3.9c-5.7-0.7-11.7-0.3-17.3,0.9c-11.6,2.5-21.9,8.6-30,16.9
						c-17.3,17.8-24.1,43.5-21.6,67.4c0.6-0.8,1.3-1.6,1.9-2.4c-0.9,0.4-2.4,1.3-3.4,1.2c-1.3,0,0.4,0.1-0.9-0.8
						c-1.1-0.8-2.5-1.4-3.8-2c-4.6-2.1-9.5-3.2-14.6-3.4c-10.2-0.4-20.5,3.6-27.7,10.6c-1.4,1.4-2.8,4.2-4.6,5.1
						c-1.6,0.8-4.8-0.1-6.8,0c-4.4,0.1-8.8,1.1-12.8,2.7c-8.4,3.5-14.6,9.8-18.1,17.9C402.6,250.6,407.6,251.9,408.9,249L408.9,249z
						"/>
				</g>
			</g>
		</g>
	</g>
	<g class="st5">
		<path class="st6" d="M403.4,242.7c4.9-12.4,18.2-20.3,31.9-18.2c0.8,0.1,1.7,0.3,2.4,0c0.9-0.3,1.6-1.2,2.1-2
			c5.2-7.2,13.6-12.2,22.7-13.6c9.1-1.4,18.6,0.8,26,6l4.3-1.5c-1.6-13.4,0.1-27.1,4.8-39.7c5-13.7,13.9-26.3,26.4-34.5
			c12.5-8.2,29-11.3,43.3-6.7l0.5,0.9c6.2-22.3,24-42.6,46.5-51.4c23.4-9.1,29.8,41,31.4,55c2.7,24,3.3,48.3,1.7,72.4
			c-0.6,8.8-1.8,18.2-8.2,24.6c-3.9,4-9.3,6.2-14.5,8.3c-35.5,14.5-71.3,29.1-109.2,36.1c-38,7.1-77.1,6.4-115.9,6.4
			c-128.7-0.2-261.5,6.1-381.7-38.1c-9.4-3.5-18.8-7.3-26.8-13.1c-18.4-13.5-25.7-36.1-24.7-57.6c0.5-10.5,2.5-22.6,7.5-32
			c6.3-11.6,26.8-0.1,35,5c12,7.3,24.1,16.8,26.8,30.2l1.5-1.8c7.2-4.9,15.5-8.5,24-10.6c7.3-1.8,15.5-2.3,22.1,1.3
			c4.9,2.7,8.3,7.5,11.4,12.1l1.4,1.6c4.3-0.8,8.4-3.6,12.6-2.7c2.7,0.6,10,2.6,11.9,4.6c2.8,2.9,5.2,9.2,5.9,13.1l0,0
			c8.3-7,16.8-14.2,27.3-17.5c10.5-3.3,23.5-1.6,30.2,6.8c0.5-8.5,10.1-13.4,18.6-16c5.5-1.7,11.3-3.1,17.1-2.6
			c8.2,0.7,15.5,5.1,21.1,10.8c5.6,5.7,9.7,12.5,13.7,19.3l-0.8,1.2c0.4-4.4,5-7.2,9.4-8.6c4.1-1.4,8.3-2.2,12.5-2.6
			c5.4-0.5,11.2-0.3,16.2,1.8c5.9,2.5,10.3,7.4,13.3,12.9c2.9,5.5,4.4,11.5,5.6,17.6c10.3-3.5,26.3-2.3,32.8,6.2l-2.1,1
			c3.6-4.6,10.1-6,16.1-6.2c2.8-0.1,5.7,0,8.6,0.7c8.3,1.9,15,8.5,16.8,16.4l1.3-1.8C391.1,233.2,399.8,236.3,403.4,242.7z"/>
	</g>
</g>
<g id="Layer_3">
	<g>
		<g>
			
				<image style="overflow:visible;opacity:0.94;enable-background:new    ;" width="1567" height="479" xlink:href="324D3700.png"  transform="matrix(0.2572 0 0 0.2385 255.6779 177.7188)">
			</image>
			<g>
				<g>
					<path class="st7" d="M642.8,197.7c-32.2,2.2-70.1,5.5-91,31.7c-1.3,1.6-2.5,3.3-3.6,5c-0.4,0.6-0.9,1.3-1.2,2
						c-0.1,0.2-0.2,0.4-0.3,0.7c0.1,1.1,0.1,1.2,0.1,0.5c-0.1,0,0.1-0.8,0-1c-1.1-1.2-2.6-2.3-4-3.1c-5.7-3.3-12.4-2.8-18.5-0.9
						c-5.8,1.8-11,5-14.3,9.8c-1.8,2.7-2.5,7.1-5.7,8.2c-3.3,1.2-7,1.2-10.4,2.7c-5.5,2.4-9.7,7.1-10.9,12.7
						c-0.2,1.2,0.5,8.5,0.8,8.3c-0.9,0.8-5-0.1-6.1,0c-2.7,0.4-5.1,1.9-7.1,3.6c-1.5,1.2-2,2.5-4.2,2.2c-1.7-0.3-4.3-3.1-5.9-4.1
						c-6.9-4.3-11.5-4.5-19.5-2.5c-4.9,1.2-7.7,3.2-12.1,0.1c-3.9-2.6-7.9-5.1-12-7.3c-7.2-3.8-14.8-6.1-23.1-6.2
						c-7.4-0.1-15,1.3-21.9,3.8c1.5-0.5-2,0.9-2.2,0.9c-1.7,0.1,0.4,1.1-1.5-0.6c-0.8-0.7-1.5-2.6-1.9-3.4c-2.2-3.3-4.6-6.4-7.5-9.1
						c-5.3-4.9-12.9-10.5-20.7-10.7c-3-0.1-5.8,0.9-8.5,2c-1.5,0.7-3,1.4-4.5,2.3c-1.6,0.9-4.4,3.3-6.3,3.7c-3,0.6-8-3.5-11-4.5
						c-3.9-1.4-8.1-2.2-12.3-2.5c-8.5-0.6-16.4,1.3-24.2,4.6c-0.5,0.2,0,0.5,0.3,0.4c15.2-6.5,31.8-6,45.7,3.2
						c0.1,0.1,0.4,0,0.5-0.1c4.1-2.4,8.1-5.1,12.5-6.9c7-2.8,13-0.9,19.2,2.7c8.2,4.9,14.4,11.8,18.4,20c0.1,0.2,0.4,0.2,0.5,0.1
						c9.9-4.9,22.9-6.5,33.9-4.3c11,2.2,20.9,8.8,29.5,15.1c0.1,0.1,0.3,0,0.4,0c6.7-2.5,15.6-5.8,22.6-2.9c4.3,1.8,8.4,5.1,12,7.9
						c0.1,0.1,0.5,0,0.6-0.1c1.4-1.5,2.8-3,4.5-4.3c2.7-1.9,5.1-1.9,8.3-2.2c1.2-0.1,2.5-0.2,3.7-0.2c0.1,0,0.5-0.1,0.4-0.3
						c-2.5-5.8-0.9-12.3,3.8-16.8c5-4.8,11.8-5.8,18.4-6.9c0.1,0,0.3-0.1,0.3-0.3c1.8-7.6,7.1-13.5,15-16.5
						c4.7-1.8,10.4-3.1,15.4-1.9c3,0.8,8.5,3,8.4,6.4c0,0.3,0.6,0.2,0.8,0c17-33.5,60.7-38,96-40.4
						C643.3,198.2,643.4,197.7,642.8,197.7L642.8,197.7z"/>
				</g>
			</g>
		</g>
		<g>
			
				<image style="overflow:visible;opacity:0.94;enable-background:new    ;" width="1196" height="254" xlink:href="324D371E.png"  transform="matrix(0.2567 0 0 0.2381 -33.2908 198.1188)">
			</image>
			<g>
				<g>
					<path class="st7" d="M-16.8,231.4c7.7-4.7,16.9-6.4,25.9-4.5c6.6,1.4,11.3,4.6,16.6,8.2c0.2,0.1,0.5,0.1,0.6-0.1
						c8.3-8,21.9-7.5,32.8-5.7c10,1.7,19.4,5.4,27.9,10.6c0.1,0.1,0.4,0,0.5-0.1c1.6-0.8,1.3-0.8,2.2-1.8c1.4-1.6,1.9-4.3,3.2-6.1
						c1.2-1.7,2.5-3.3,4.1-4.7c7.4-7,18.7-10,29-7.7c7.8,1.7,14.4,6.2,19.7,11.6c1.1,1.1,2.2,2.3,3.1,3.6c0.8,0.9,1.7,3.2,2.8,3.8
						c1,0.5,2.5,0.6,3.6,0.8c0.2,0,0.5,0,0.6-0.2c3.7-5.3,10.4-9.5,17.5-6.8c4.1,1.6,5.1,4.3,7.1,7.6c2,3.1,2.6,2.9,5.9,2.4
						c0.1,0,0.4-0.1,0.4-0.2c3.8-14.2,25-16.9,37.7-13.7c12.9,3.2,23.5,11.4,32.5,20.2c0.2,0.2,1-0.1,0.8-0.3
						c-15.3-15-40.1-29.7-62.2-17c-3.5,2-7,4.7-8.6,8.3c-1,2.1-1.4,3.6-4.2,2.2c-2.2-1.1-2.7-4.8-4.2-6.6
						c-5.7-6.6-16.4-4.1-21.5,1.6c-1.3,1.5-1.9,3-4.3,1.6c-1.8-1.1-3.7-4.7-5.2-6.2c-4.2-4.7-9.5-8.7-15.5-11.1
						c-9.3-3.8-20.3-3.2-29.1,1.5c-4.7,2.6-8.8,6.4-11.5,10.9c-0.5,0.9-2.2,5.4-2.9,5.7c-2.2,0.9-8.1-3.6-10.5-4.6
						c-11.2-5-24.4-7.7-36.8-6.2c-4.6,0.5-9.5,1.8-13.3,4.7c-1.4,1.1-1.2,1.6-2.6,1.3c-0.3-0.1-2.3-1.7-2.3-1.6
						c-2.6-1.8-5.3-3.4-8.3-4.5c-10.7-4-22.6-2.7-32.2,3.1C-17.7,231.4-17,231.5-16.8,231.4L-16.8,231.4z"/>
				</g>
			</g>
		</g>
		<g>
			<path class="st8" d="M269.9,244.6c1.6-0.7,3.3-1.4,5-2c13.5-4.9,29.5-2.8,41.2,5.2c6.4-3.6,14.2-9.4,21.6-8.5
				c3,0.4,5.9,1.6,8.5,3c9.1,4.8,16.4,12.4,20.7,21.3l1.8-0.9c11.9-4.5,25.6-6.1,37.6-2c3.6,1.2,7,2.9,10.2,4.7
				c5,2.7,9.6,5.8,14.1,9.1c4.5-1.7,9.3-3,14.1-3.9c1.8-0.3,3.8-0.6,5.7-0.2c1.8,0.3,3.5,1.2,5,2c3.7,2.1,7.1,4.4,10.5,7
				c3.3-3.8,8.2-7.9,13.3-6.6l3.7-0.2c-2.9-5.8-0.5-13,4.4-17.5s11.3-5.4,18.1-6.5c1.2-5.7,4.9-10.9,10-14.2c2.8-1.8,5.9-3,9.2-3.9
				c2.8-0.7,5.6-1.3,8.5-1.1c4.5,0.3,8.9,2.3,12,5.5v1.7c7.7-15.7,24-26.5,41.5-32.3c17.5-5.8,36.2-7,54.8-8.3l1.2,2.1
				c2.6,11.4,4.9,22.9,6.5,34.5c2.7,20.4,3.1,40.9,3.6,61.4l1.5,1.9c-55,30.6-122.5,32.7-186.6,32.3c-161.7-1-323.2-11.9-483.5-32.6
				c-4.7-0.6-10.4-1.9-11.6-6.2l-0.1-2.4c0.1-11.4,0.1-22.8,0.2-34.3c0-4.6,0.1-9.5,2.9-13.3c1-1.4,2.4-2.7,3-4.3
				c6.3-17,32.2-11.9,44.3-3.6l1.9,1.3c5-5.3,12.6-6.7,19.7-6.9c14.6-0.3,29.2,3.8,41.6,11.7l1.7-0.9c2.3-6.8,7.4-12.8,14-16.4
				c6.7-3.6,14.8-4.8,22.3-3.3c11.3,2.2,20.5,10.1,26.6,19.2l3.5,0.7c2.4-3.8,6.4-6.9,11.1-7.7c4.6-0.8,9.9,1,12.4,4.8
				c1.4,2.2,2,5.1,4.5,6.2l3-0.5c0.6-3.2,2.9-5.9,5.5-8.1c9.4-7.6,23.4-8.8,35.3-5.3c11.9,3.6,21.8,11.2,30.3,19.7"/>
		</g>
	</g>
</g>
<g id="path">
	<g>
		
			<image style="overflow:visible;opacity:0.87;enable-background:new    ;" width="2692" height="504" xlink:href="4528F405.png"  transform="matrix(0.2483 0 0 0.2381 -25.3259 228.3588)">
		</image>
		<g>
			<g>
				<g>
					<g>
						<path class="st7" d="M1.2,286c15.6-7.3,36.4-11.8,52.9-4.8c4,1.7,7.6,3.9,11.1,6.3c3.2,2.3,6.5,6.1,10.1,7.9
							c3.4,1.7,6.8-0.4,8.3-3.2c7-13.1,19.1-23.7,33.5-28.9c16.4-5.9,35.2-5.6,52.6-5.3c10.6,0.2,20.8,1.9,30.5,6.3
							c8.6,3.9,16.4,9.1,24.1,14.2c1.3,0.8,2.8,0.1,3.5-0.9c1.6-2.2,8-3.7,10.6-4.6c4.3-1.5,8.7-2.8,13-3.7c8.9-1.9,18-2.5,27.1-1.6
							c16.2,1.6,31.7,8.5,43.1,19.8c2.7,2.7,5.1,5.6,7.2,8.7c1.8,2.6,2.9,6.1,5,8.4c4.7,5.2,14.2-3,20.1,0.6
							c2.5,1.5,3.8,5.5,6.8,5.9c2.6,0.3,3.5-1.9,4.9-3.5c5.8-7.1,15.1-10.1,24.4-8.8c10,1.4,18,4.4,24.6,12
							c4.2,4.9,7.9,11.1,14.4,13.4c1.1,0.4,2.3-0.3,2.9-1.1c12.2-15.4,34.3-14,50.9-7.1c1.3,0.5,2.9,0.4,3.5-0.9
							c1.1-2.2,2.6-4.3,4.7-5.9c3.9-3.1,9-1.6,13.7-2c1.6-0.1,2.4-1.1,2.6-2.5c0.1-1,1.1-2.4,1.5-3.5c0.5-1.8,0.8-3.6,1-5.4
							c0.6-5,0.7-10,2.7-14.8c3.4-8,10.7-14,18.9-17.5c20.3-8.6,42.7,0.4,60.1,11.1c0.7,0.5,1.9,0.4,2.6,0c6.6-3.7,14.1-10.1,22-6.1
							c2.9,1.5,5.6-2.8,2.6-4.3c-10.1-5.1-18.8,1.2-27.3,6.1c0.8,0,1.8,0,2.6,0c-18.9-11.6-42.7-20.5-64.7-11.4
							c-8.7,3.6-16.5,9.8-20.8,18c-2.2,4.2-3.1,8.5-3.5,13.2c-0.3,3-0.4,6.1-1.3,9c-0.5,1.9-1.7,3.6-1.9,5.6
							c0.8-0.8,1.8-1.7,2.6-2.5c-5.4,0.4-10.7-1-15.5,2.1c-3.1,2-5.5,5.1-7.2,8.2c1.1-0.3,2.4-0.6,3.5-0.9
							c-19.6-8.1-44-8.9-58.1,8.9c0.9-0.4,2-0.8,2.9-1.1c-5.5-2-9.3-9-13-13.3c-5.2-5.8-11.2-9-19-10.8c-15.1-3.5-29.8-1.3-38.9,12
							c0.7-0.4,1.5-0.8,2.3-1.2c-0.3,0-0.7,0.1-1,0.1c0.7,0.4,1.5,0.8,2.3,1.2c-2.8-3.6-5.8-7.2-10.7-8c-5.1-0.9-11.1,1.1-16.1,2.1
							c0.8,0.2,1.7,0.4,2.5,0.6c-1.7-1.4-2.3-3.4-3.3-5.3c-1.4-2.4-2.9-4.6-4.6-6.8c-3.2-4.1-6.9-7.8-11.1-11.1
							c-8.3-6.6-18-11.4-28.5-14.1c-11.9-3.1-24.5-3.2-36.7-1.2c-6.3,1-12.4,2.7-18.4,4.9c-4.2,1.5-10.3,3-12.8,6.6
							c1.1-0.3,2.4-0.6,3.5-0.9c-12.3-8.2-25-16.5-39.8-19.5c-15.9-3.2-33.9-2.3-50-0.7c-14.1,1.4-27.4,5.4-38.7,13.7
							c-5.1,3.7-9.6,8.1-13.5,13c-1.8,2.3-4.7,5.5-5.5,8.3c-0.6,2.2-0.4,1.6-3.3,2.1c0.8,0.2,1.7,0.4,2.5,0.6
							c-11-9-22.1-17.2-36.9-18.6c-14.7-1.3-29.9,2.4-43.2,8.6C-4.4,283.1-1.7,287.4,1.2,286L1.2,286z"/>
					</g>
				</g>
			</g>
		</g>
	</g>
	<g>
		<g>
			<path class="st7" d="M-3.9,280.2c-8,4-15.1,9.9-20.3,17l-1.4,2.5c-0.2,21-0.3,42-0.5,63l0.8,5.3
				c166.2,18.6,334.1,17.2,501.5,15.8c49.1-0.4,98.6-0.9,146.8-9.3l2.6-3.3c0.8-24.3,1.8-48.5,2.6-72.8c0.2-6.2,0.4-12.5-1-18.6
				s-4.9-11.9-10.4-15.2l-3.1-1.7c-3.4-2-7.8-2-11.7-0.9c-3.9,1.2-7.2,3.4-10.5,5.5l-2.5,1.4c-14.1-8.8-30.5-15.7-47.2-14.8
				c-16.8,1-33.8,11.7-37.1,27.6c-1.4,6.3-0.5,13.2-3.8,18.9v0.4c-3.9,0.5-7.9-0.7-11.6,0.5c-3.4,1.1-5.7,4-7.9,6.7l-1,1.9
				c-9.1-3.9-19.1-6.2-29-5.3c-9.9,1-19.7,5.5-25.4,13.3l-2-0.7c-7.6-5.7-11.7-15.2-20-19.9c-3.5-2-7.6-3-11.7-3.8
				c-3.4-0.7-7-1.4-10.5-1.5c-9.5-0.1-18.8,4.9-23.7,12.6l-1,0.1c-2.2-2.9-4.7-5.9-8.3-6.8c-2.2-0.5-4.5-0.1-6.8,0.3
				c-2.9,0.5-5.8,1.1-8.8,1.6l-1.4-1.2c-8.6-18.5-27.4-31.8-48-36.1c-20.6-4.4-42.7-0.3-61.3,9l-0.6,0.8
				c-11.6-7.7-23.6-15.6-37.3-18.8c-9.6-2.3-19.6-2.1-29.5-2c-13.8,0.2-27.8,0.5-40.9,4.8C97.7,262,83.8,274,76.5,289.1l-3.4,0.5
				c-8-6.6-16.5-13.4-26.6-16.3c-6.2-1.8-12.7-2-19.1-1.6c-10.8,0.8-21.5,3.6-31.2,8.3L-3.9,280.2z"/>
		</g>
	</g>
	<rect x="-24.6" y="349.2" class="st7" width="651.6" height="218.5"/>
</g>
</svg>
