<?xml version="1.0" encoding="utf-8"?>
<!-- Generator: Adobe Illustrator 22.1.0, SVG Export Plug-In . SVG Version: 6.00 Build 0)  -->
<svg version="1.1" id="Layer_1" xmlns="http://www.w3.org/2000/svg" xmlns:xlink="http://www.w3.org/1999/xlink" x="0px" y="0px"
	 viewBox="0 0 1190.6 841.9" style="enable-background:new 0 0 1190.6 841.9;" xml:space="preserve">
<style type="text/css">
	.st0{opacity:0.37;enable-background:new    ;}
	.st1{fill:#FFFFFF;}
	.st2{opacity:0.2;enable-background:new    ;}
</style>
<g id="Layer_1_1_">
	<path class="st0" d="M-106,0.6c55.4-7.7,131.9,65.7,141.7,75c25.7,24.7,75,71.9,78,136.5c3,64.4-49.4,77-63,162
		c-2.6,16-10.9,72,13.5,127.9c36.2,83,99.7,63.8,165,163.5c11.3,17.3,45.3,72.7,53.4,150c2.9,27.8,4.8,41.9-0.1,53.5
		c-38.2,90.3-329.1,111.8-473.3-3.2C-445.9,662.3-255.8,21.4-106,0.6z"/>
	<g>
		
			<image style="overflow:visible;opacity:0.65;enable-background:new    ;" width="4904" height="4996" xlink:href="8966DDA9.png"  transform="matrix(0.2398 0 0 0.2398 222.8097 -607.5873)">
		</image>
		<g>
			<path class="st1" d="M386-340.1c-25,45.7-20,124.2-10,281c11.1,173.6,19.1,278.3,92,382c21,29.9,73.2,102.1,170,143
				c25.5,10.8,79.9,33,150.8,27.9c105.4-7.6,179.6-70.2,210-97.4c43.6-39.1,54-67.6,111.6-112c45-34.7,88-55.3,117.4-67.4
				c0,0,12.3-12.7,22.3-28.5c97.4-153.9,84.4-395.3-21-537.3C1029.8-617.3,497.9-544.8,386-340.1z"/>
		</g>
	</g>
	<path class="st2" d="M303.5,804.1c-5.8-76.9,208.8-203.5,401.1-188c150.9,12.2,236,107.8,333,57c79.7-41.7,103-148.5,153-139.5
		c25.2,4.5,39.1,35.3,45.9,50.5c43.5,96.5-4.3,223-43,276.9C1024.2,1096.7,313.8,939.8,303.5,804.1z"/>
</g>
<g id="Layer_2_1_">
</g>
</svg>
